<svg width="100" height="100" viewBox="0 0 100 100" fill="none" xmlns="http://www.w3.org/2000/svg">
  <!-- Blue open circle with gap at top -->
  <path d="M 73 22 A 38 38 0 1 1 27 22" stroke="#0044CC" stroke-width="9" fill="none" stroke-linecap="round"/>

  <!-- Blue blood drop -->
  <path d="M50 8 C48 15 43 26 43 31 C43 36 46 39 50 39 C54 39 57 36 57 31 C57 26 52 15 50 8Z" fill="#0044CC"/>

  <!-- White crescent highlight on drop -->
  <path d="M47 33 C47 29 48.5 25 48.5 25 C47.5 28 45 30.5 45 33 C45 36.5 47 38 50 38 C48 37.5 47 35.5 47 33Z" fill="white" opacity="0.4"/>

  <!-- Green heart -->
  <path d="M50 86 C32 70 16 56 16 44 C16 36 23 30 33 30 C42 30 48 38 50 46 C52 38 58 30 67 30 C78 30 84 36 84 44 C84 56 68 70 50 86Z" fill="#219B43"/>
</svg>